<?xml version="1.0" standalone="no"?>
<!DOCTYPE svg PUBLIC "-//W3C//DTD SVG 20010904//EN"
 "http://www.w3.org/TR/2001/REC-SVG-20010904/DTD/svg10.dtd">
<svg version="1.0" xmlns="http://www.w3.org/2000/svg"
 width="200.000000pt" height="200.000000pt" viewBox="0 0 200.000000 200.000000"
 preserveAspectRatio="xMidYMid meet">
<metadata>
Created by potrace 1.11, written by Peter Selinger 2001-2013
</metadata>
<g transform="translate(0.000000,200.000000) scale(0.100000,-0.100000)"
fill="#000000" stroke="none">
<path d="M1015 1640 c-22 -5 -98 -31 -170 -60 -77 -30 -163 -56 -212 -64 -93
-15 -103 -21 -141 -85 -23 -40 -27 -43 -30 -23 -4 29 -7 28 -42 -10 -70 -79
-90 -143 -110 -363 -16 -171 -12 -248 14 -343 14 -48 28 -106 31 -129 12 -80
44 -41 46 56 0 32 1 33 9 14 5 -13 16 -23 24 -23 9 0 16 -16 20 -44 8 -53 39
-102 83 -132 64 -43 206 -37 269 11 36 28 80 109 76 142 -2 12 4 33 14 47 14
23 23 26 73 26 51 0 57 -3 69 -27 6 -15 12 -39 12 -54 0 -32 53 -114 93 -143
22 -16 47 -22 112 -24 138 -6 196 33 226 150 7 27 19 48 26 48 7 0 14 6 14 13
1 6 6 -13 13 -43 16 -77 38 -75 49 5 4 33 14 94 23 135 8 41 20 142 26 225 11
150 11 151 -16 227 -38 112 -32 138 26 107 11 -6 22 -8 25 -5 9 9 -17 63 -43
87 -56 52 -8 49 83 -6 67 -40 73 -42 73 -16 0 47 -121 171 -209 215 -155 78
-405 116 -556 86z m-436 -665 c206 -53 438 -61 626 -20 162 36 197 39 238 26
34 -12 37 -15 51 -84 8 -40 17 -88 20 -107 l6 -35 -183 0 c-177 0 -184 -1
-250 -28 -82 -35 -159 -34 -252 3 -55 22 -75 24 -243 25 l-184 0 5 30 c12 72
47 189 59 197 19 11 43 10 107 -7z m192 -266 c30 -7 62 -21 76 -35 26 -26 31
-74 8 -74 -12 0 -13 -4 -3 -19 9 -15 7 -28 -13 -67 -33 -67 -65 -87 -144 -92
-35 -2 -81 -1 -100 2 -53 10 -102 59 -120 119 -23 78 -20 114 14 148 29 28 32
29 130 29 55 0 123 -5 152 -11z m641 1 c49 -14 62 -39 55 -111 -7 -78 -39
-132 -91 -156 -53 -23 -168 -24 -213 0 -56 30 -98 111 -73 142 10 12 9 15 -4
15 -10 0 -16 8 -16 23 1 62 77 94 230 96 41 0 92 -4 112 -9z"/>
</g>
</svg>
