<?xml version="1.0" encoding="UTF-8"?>
<svg width="60px" height="60px" viewBox="0 0 60 60" version="1.1" xmlns="http://www.w3.org/2000/svg" xmlns:xlink="http://www.w3.org/1999/xlink">
    <!-- Generator: Sketch 51.3 (57544) - http://www.bohemiancoding.com/sketch -->
    <title>indesign</title>
    <desc>Created with Sketch.</desc>
    <defs></defs>
    <g id="Page-1" stroke="none" stroke-width="1" fill="none" fill-rule="evenodd">
        <g id="Mobile-Copy-2" fill="#FFFFFF">
            <g id="Group">
                <path d="M8,0 L52,0 C56.418278,-8.11624501e-16 60,3.581722 60,8 L60,52 C60,56.418278 56.418278,60 52,60 L8,60 C3.581722,60 5.41083001e-16,56.418278 0,52 L0,8 C-5.41083001e-16,3.581722 3.581722,8.11624501e-16 8,0 Z M16,18 C17.6568542,18 19,16.6568542 19,15 C19,13.3431458 17.6568542,12 16,12 C14.3431458,12 13,13.3431458 13,15 C13,16.6568542 14.3431458,18 16,18 Z M8.13501677,22.0891085 L7.03380971,27.9111495 L11.0877038,27.9111495 C8.82276697,36.2039391 7.69029854,41.1648714 7.69029854,42.7939465 C7.69029854,45.2375591 9.92984127,47.9677495 13.5412174,47.9677495 C15.9488015,47.9677495 18.5838327,46.6268108 21.446311,43.9449334 L21.0585232,47.4746266 L27.4487695,47.4746266 C31.0771056,36.2920394 33.2413827,30.1554594 33.9416008,29.0648867 C34.9919279,27.4290277 37.0831435,27.0919166 38.7375171,27.4870583 C40.3918907,27.8822 41.1550899,29.9950271 40.7815158,32.1993665 C40.4079417,34.4037058 37.9270133,38.211451 37.9270133,41.2862499 C37.9270133,44.3610489 38.8511031,46.9779283 43.2138523,47.9677495 C44.5295271,48.26625 46.2519972,48.1330742 47.5766014,47.1223746 C48.6456914,46.3066375 50.1217599,44.0492906 52.004807,40.3503339 L49.2146607,39.8750877 C48.4240505,41.4885779 47.8780307,42.4615308 47.5766014,42.7939465 C47.1244575,43.29257 45.3139565,45.0092869 44.2380519,43.4188072 C43.1621473,41.8283276 45.3139565,38.4435735 46.4291899,35.5153638 C47.5444233,32.5871542 47.9576937,29.841795 47.5766014,27.9111495 C47.1955092,25.980504 46.5149982,22.7827259 41.5210627,22.0891085 C38.1917723,21.6266969 35.0145718,23.1123913 31.989461,26.5461918 L32.8912737,22.0891085 L22.6740303,22.0891085 L21.0585232,27.9111495 L25.5887637,27.9111495 C23.1446927,35.1458196 21.6346126,39.2922144 21.0585232,40.3503339 C20.1943892,41.9375132 15.0538645,43.4188072 14.5329638,43.4188072 C14.1856967,43.4188072 14.1856967,42.8475767 14.5329638,41.7051156 L19.4804198,22.0891085 L8.13501677,22.0891085 Z" id="indesign"></path>
            </g>
        </g>
    </g>
</svg>