<?xml version="1.0" encoding="UTF-8"?>
<svg width="60px" height="57px" viewBox="0 0 60 57" version="1.1" xmlns="http://www.w3.org/2000/svg" xmlns:xlink="http://www.w3.org/1999/xlink">
    <!-- Generator: Sketch 51.3 (57544) - http://www.bohemiancoding.com/sketch -->
    <title>sketch</title>
    <desc>Created with Sketch.</desc>
    <defs></defs>
    <g id="Page-1" stroke="none" stroke-width="1" fill="none" fill-rule="evenodd">
        <g id="Mobile" transform="translate(0.000000, -2.000000)" fill="#FFFFFF" fill-rule="nonzero">
            <g id="icons8-diamond" transform="translate(0.000000, 2.000000)">
                <path d="M17.9974046,0 C17.9592264,0.00954515204 17.9210482,0.0238610476 17.8828701,0.0381781648 L17.4629102,0.0381781648 L17.3101976,0.229068989 C17.2815646,0.252930036 17.2577023,0.276792305 17.2338413,0.305425318 L17.1956631,0.343603483 C17.171802,0.353148635 17.1431678,0.36746453 17.1193068,0.381781648 L17.1193068,0.419959812 C17.0620395,0.467683129 17.0143174,0.515405224 16.9665941,0.572672472 L0.855408573,17.5237776 L0.130023443,18.2873409 L0.779052244,19.1272605 L28.9545378,55.3965171 C29.0356661,55.7926158 29.3076865,56.1171302 29.679923,56.2746149 L30.2144173,57 L30.7870898,56.2364367 C31.1450104,56.0694069 31.3979404,55.7448925 31.4742967,55.3583389 C31.4742967,55.3440218 31.4742967,55.3344779 31.4742967,55.3201608 L59.6497823,19.1272605 L60.2988111,18.2873409 L59.573426,17.5237776 L43.5004186,0.649028801 C43.4765576,0.620395788 43.4526965,0.596533519 43.4240623,0.572672472 L43.4240623,0.534494307 C43.3906561,0.491544177 43.3524779,0.453366012 43.3095278,0.419959812 L43.2713496,0.343603483 C43.2140824,0.286336236 43.1472712,0.233840954 43.0804588,0.190890824 L42.9659243,0.0381781648 L42.6223208,0.0381781648 C42.5459645,0.0190890824 42.4696082,0.00477196517 42.3932518,0 C42.3168955,0.00477196517 42.2405392,0.0190890824 42.1641829,0.0381781648 L18.111939,0.0381781648 C18.0737609,0.0238610476 18.0355827,0.00954515204 17.9974046,0 Z M18.9900368,2.48158071 L27.4274113,2.48158071 L16.4320998,14.35499 L18.9900368,2.48158071 Z M33.0014233,2.48158071 L41.4387977,2.48158071 L43.9967348,14.3168118 L33.0014233,2.48158071 Z M30.2144173,3.05425318 L43.3095278,17.141996 L17.0811286,17.141996 L30.2144173,3.05425318 Z M44.5312291,5.23040857 L55.8319658,17.141996 L47.0509879,17.141996 L44.5312291,5.23040857 Z M15.8976055,5.26858674 L13.3396685,17.141996 L4.59686872,17.141996 L15.8976055,5.26858674 Z M4.25326524,19.5853985 L13.5305593,19.5853985 L25.289434,46.6918955 L4.25326524,19.5853985 Z M16.1648526,19.5853985 L44.2639819,19.5853985 L30.2144173,51.9604823 L16.1648526,19.5853985 Z M46.8600971,19.5853985 L56.1755693,19.5853985 L35.1394005,46.6918955 L46.8600971,19.5853985 Z" id="sketch"></path>
            </g>
        </g>
    </g>
</svg>